<svg width="238" height="228" viewBox="0 0 238 228" fill="none" xmlns="http://www.w3.org/2000/svg">
<path d="M38.5 120.8C32.3 120.8 26.6 120.367 21.4 119.5V113C23.7333 113.333 26.3 113.633 29.1 113.9C31.9 114.1 34.2667 114.2 36.2 114.2C38.8667 114.2 40.9667 114.033 42.5 113.7C44.1 113.3 45.4 112.633 46.4 111.7C47.3333 110.833 47.9333 109.567 48.2 107.9C48.5333 106.233 48.7 104 48.7 101.2C48.7 97.5333 48.5667 94.9667 48.3 93.5C48.0333 92.0333 47.4 91 46.4 90.4C45.4667 89.7333 43.7667 89.2 41.3 88.8L29.7 87C26.9 86.5333 24.8 85.6 23.4 84.2C22 82.7333 21.0667 80.8667 20.6 78.6C20.2 76.3333 20 73.3 20 69.5C20 62.5667 21.4667 57.6667 24.4 54.8C27.3333 51.8667 32.0333 50.4 38.5 50.4C44.7 50.4 49.7667 50.9333 53.7 52V58.2C49.2333 57.4 44.7333 57 40.2 57C37.3333 57 35.0667 57.2667 33.4 57.8C31.7333 58.2667 30.4667 59 29.6 60C28.7333 61 28.1667 62.2333 27.9 63.7C27.6333 65.1667 27.5 67.0333 27.5 69.3C27.5 72.3667 27.6333 74.6 27.9 76C28.1667 77.3333 28.7 78.2667 29.5 78.8C30.3 79.3333 31.6333 79.7667 33.5 80.1L44.7 81.9C47.5 82.3667 49.7 83.0667 51.3 84C52.9 84.9333 54.1333 86.5333 55 88.8C55.8 90.7333 56.2 94.5667 56.2 100.3C56.2 105.433 55.6333 109.467 54.5 112.4C53.4333 115.333 51.6 117.467 49 118.8C46.4667 120.133 42.9667 120.8 38.5 120.8ZM68.7594 120V75.1H61.3594V69H68.7594V54.2H75.8594V69H84.6594V75.1H75.8594V120H68.7594ZM119.003 112.9H118.503C117.703 115.433 116.303 117.4 114.303 118.8C112.37 120.133 109.57 120.8 105.903 120.8C102.17 120.8 99.3365 120.133 97.4031 118.8C95.5365 117.467 94.2698 115.467 93.6031 112.8C93.0031 110.067 92.7031 106.2 92.7031 101.2V69H99.8031V98.8C99.8031 103.667 100.003 107.133 100.403 109.2C100.87 111.267 101.703 112.667 102.903 113.4C104.103 114.067 106.07 114.4 108.803 114.4C111.803 114.4 114.003 113.7 115.403 112.3C116.803 110.833 117.67 108.867 118.003 106.4C118.403 103.867 118.603 100.233 118.603 95.5V69H125.703V120H119.403L119.003 112.9ZM151.216 120.8C147.282 120.8 144.282 120.067 142.216 118.6C140.216 117.133 138.782 114.567 137.916 110.9C137.116 107.233 136.716 101.8 136.716 94.6C136.716 87.4667 137.116 82.0333 137.916 78.3C138.716 74.5667 140.116 71.9667 142.116 70.5C144.182 68.9667 147.182 68.2 151.116 68.2C154.316 68.2 156.882 68.7333 158.816 69.8C160.749 70.8667 162.182 72.6667 163.116 75.2H163.616V45.7H170.716V120H164.416L164.016 113H163.516C162.582 116.067 161.049 118.133 158.916 119.2C156.849 120.267 154.282 120.8 151.216 120.8ZM153.816 114.4C156.282 114.4 158.216 113.933 159.616 113C161.016 112.067 161.982 110.533 162.516 108.4C162.982 106.667 163.282 104.733 163.416 102.6C163.549 100.4 163.616 97.4333 163.616 93.7C163.616 88.0333 163.316 84.0333 162.716 81.7C162.182 79.1 161.182 77.2667 159.716 76.2C158.316 75.1333 156.282 74.6 153.616 74.6C150.616 74.6 148.449 75.0333 147.116 75.9C145.782 76.7667 144.882 78.5333 144.416 81.2C144.016 83.8667 143.816 88.3 143.816 94.5C143.816 100.7 144.049 105.133 144.516 107.8C144.982 110.467 145.849 112.233 147.116 113.1C148.449 113.967 150.682 114.4 153.816 114.4ZM197.635 139.9C192.568 139.9 188.202 139.7 184.535 139.3V133.5C188.135 133.7 192.035 133.8 196.235 133.8C200.102 133.8 202.935 133.233 204.735 132.1C206.535 130.967 207.668 129.167 208.135 126.7C208.668 124.3 208.935 120.533 208.935 115.4V113.4H208.435C207.635 115.6 206.302 117.367 204.435 118.7C202.568 119.967 199.802 120.6 196.135 120.6C192.335 120.6 189.502 119.933 187.635 118.6C185.835 117.2 184.602 115.1 183.935 112.3C183.335 109.5 183.035 105.467 183.035 100.2V69H190.135V98.7C190.135 103.5 190.335 106.967 190.735 109.1C191.202 111.167 192.002 112.533 193.135 113.2C194.335 113.867 196.335 114.2 199.135 114.2C202.135 114.2 204.335 113.5 205.735 112.1C207.135 110.633 208.002 108.667 208.335 106.2C208.735 103.667 208.935 100.033 208.935 95.3V69H216.035V113C216.035 120.067 215.602 125.433 214.735 129.1C213.868 132.833 212.135 135.567 209.535 137.3C206.935 139.033 202.968 139.9 197.635 139.9Z" fill="#2568ED"/>
<path d="M66.4 163.8C65.6667 163.967 64.7667 164.1 63.7 164.2C62.6667 164.333 61.6833 164.4 60.75 164.4C57.75 164.4 55.55 163.95 54.15 163.05C52.7833 162.15 51.85 160.517 51.35 158.15C50.8833 155.75 50.65 151.967 50.65 146.8C50.65 141.667 50.8833 137.917 51.35 135.55C51.85 133.15 52.7833 131.5 54.15 130.6C55.55 129.667 57.75 129.2 60.75 129.2C61.6833 129.2 62.6667 129.267 63.7 129.4C64.7333 129.533 65.5833 129.7 66.25 129.9V132.95C64.3833 132.65 62.8167 132.5 61.55 132.5C59.25 132.5 57.6333 132.8 56.7 133.4C55.7667 134 55.15 135.233 54.85 137.1C54.5833 138.967 54.45 142.2 54.45 146.8C54.45 151.4 54.5833 154.633 54.85 156.5C55.15 158.367 55.7667 159.6 56.7 160.2C57.6333 160.8 59.25 161.1 61.55 161.1C63.2167 161.1 64.8333 160.95 66.4 160.65V163.8ZM79.0195 164.4C76.3195 164.4 74.3695 164.05 73.1695 163.35C72.0029 162.65 71.2362 161.433 70.8695 159.7C70.5362 157.967 70.3695 155.15 70.3695 151.25C70.3695 147.35 70.5362 144.533 70.8695 142.8C71.2362 141.067 72.0029 139.85 73.1695 139.15C74.3695 138.45 76.3195 138.1 79.0195 138.1C81.7195 138.1 83.6529 138.45 84.8195 139.15C86.0195 139.85 86.7862 141.067 87.1195 142.8C87.4529 144.533 87.6195 147.35 87.6195 151.25C87.6195 155.15 87.4529 157.967 87.1195 159.7C86.7862 161.433 86.0195 162.65 84.8195 163.35C83.6529 164.05 81.7195 164.4 79.0195 164.4ZM79.0195 161.35C80.6862 161.35 81.8529 161.117 82.5195 160.65C83.2195 160.183 83.6529 159.317 83.8195 158.05C83.9862 156.783 84.0695 154.517 84.0695 151.25C84.0695 147.983 83.9862 145.717 83.8195 144.45C83.6529 143.183 83.2195 142.317 82.5195 141.85C81.8529 141.383 80.6862 141.15 79.0195 141.15C77.3195 141.15 76.1362 141.383 75.4695 141.85C74.8029 142.317 74.3695 143.2 74.1695 144.5C74.0029 145.767 73.9195 148.017 73.9195 151.25C73.9195 154.483 74.0029 156.75 74.1695 158.05C74.3695 159.317 74.8029 160.183 75.4695 160.65C76.1362 161.117 77.3195 161.35 79.0195 161.35ZM99.5922 164.4C97.6255 164.4 96.1255 164.033 95.0922 163.3C94.0922 162.567 93.3755 161.283 92.9422 159.45C92.5422 157.617 92.3422 154.9 92.3422 151.3C92.3422 147.733 92.5422 145.017 92.9422 143.15C93.3422 141.283 94.0422 139.983 95.0422 139.25C96.0755 138.483 97.5755 138.1 99.5422 138.1C101.142 138.1 102.426 138.367 103.392 138.9C104.359 139.433 105.076 140.333 105.542 141.6H105.792V126.85H109.342V164H106.192L105.992 160.5H105.742C105.276 162.033 104.509 163.067 103.442 163.6C102.409 164.133 101.126 164.4 99.5922 164.4ZM100.892 161.2C102.126 161.2 103.092 160.967 103.792 160.5C104.492 160.033 104.976 159.267 105.242 158.2C105.476 157.333 105.626 156.367 105.692 155.3C105.759 154.2 105.792 152.717 105.792 150.85C105.792 148.017 105.642 146.017 105.342 144.85C105.076 143.55 104.576 142.633 103.842 142.1C103.142 141.567 102.126 141.3 100.792 141.3C99.2922 141.3 98.2089 141.517 97.5422 141.95C96.8755 142.383 96.4255 143.267 96.1922 144.6C95.9922 145.933 95.8922 148.15 95.8922 151.25C95.8922 154.35 96.0089 156.567 96.2422 157.9C96.4755 159.233 96.9089 160.117 97.5422 160.55C98.2089 160.983 99.3255 161.2 100.892 161.2ZM131.502 152.4H118.402C118.402 155.1 118.519 157.05 118.752 158.25C119.019 159.417 119.552 160.233 120.352 160.7C121.185 161.133 122.569 161.35 124.502 161.35C126.702 161.35 128.802 161.167 130.802 160.8V163.7C130.035 163.9 128.985 164.067 127.652 164.2C126.319 164.333 125.035 164.4 123.802 164.4C121.102 164.4 119.135 164.017 117.902 163.25C116.669 162.45 115.852 161.167 115.452 159.4C115.052 157.633 114.852 154.933 114.852 151.3C114.852 147.667 115.019 144.983 115.352 143.25C115.685 141.483 116.452 140.183 117.652 139.35C118.885 138.517 120.852 138.1 123.552 138.1C126.085 138.1 127.902 138.5 129.002 139.3C130.102 140.1 130.785 141.35 131.052 143.05C131.352 144.75 131.502 147.483 131.502 151.25V152.4ZM123.502 141.1C121.935 141.1 120.802 141.3 120.102 141.7C119.402 142.1 118.935 142.883 118.702 144.05C118.502 145.183 118.402 147.083 118.402 149.75H128.102V149.15C128.102 146.717 127.969 144.95 127.702 143.85C127.435 142.717 126.985 141.983 126.352 141.65C125.752 141.283 124.802 141.1 123.502 141.1Z" fill="#865DE7"/>
<path d="M66.4 163.8L66.6216 164.775L67.4 164.598V163.8H66.4ZM63.7 164.2L63.6067 163.204L63.5893 163.206L63.572 163.208L63.7 164.2ZM54.15 163.05L53.6 163.885L53.6092 163.891L54.15 163.05ZM51.35 158.15L50.3684 158.341L50.3699 158.349L50.3716 158.357L51.35 158.15ZM51.35 135.55L50.371 135.346L50.3689 135.357L51.35 135.55ZM54.15 130.6L54.7 131.435L54.7047 131.432L54.15 130.6ZM63.7 129.4L63.572 130.392L63.7 129.4ZM66.25 129.9H67.25V129.156L66.5373 128.942L66.25 129.9ZM66.25 132.95L66.0913 133.937L67.25 134.124V132.95H66.25ZM54.85 137.1L53.8627 136.941L53.8613 136.95L53.8601 136.959L54.85 137.1ZM54.85 156.5L53.8601 156.641L53.8613 156.65L53.8627 156.659L54.85 156.5ZM56.7 160.2L57.2408 159.359L56.7 160.2ZM66.4 160.65H67.4V159.44L66.2119 159.668L66.4 160.65ZM66.1784 162.825C65.5009 162.979 64.6467 163.107 63.6067 163.204L63.7933 165.196C64.8867 165.093 65.8325 164.954 66.6216 164.775L66.1784 162.825ZM63.572 163.208C62.5763 163.337 61.636 163.4 60.75 163.4V165.4C61.7307 165.4 62.757 165.33 63.828 165.192L63.572 163.208ZM60.75 163.4C57.8086 163.4 55.8455 162.951 54.6908 162.209L53.6092 163.891C55.2545 164.949 57.6914 165.4 60.75 165.4V163.4ZM54.7 162.215C53.6394 161.516 52.7998 160.175 52.3284 157.943L50.3716 158.357C50.9002 160.859 51.9273 162.784 53.6 163.885L54.7 162.215ZM52.3316 157.959C51.8844 155.659 51.65 151.957 51.65 146.8H49.65C49.65 151.976 49.8823 155.841 50.3684 158.341L52.3316 157.959ZM51.65 146.8C51.65 141.676 51.8845 138.008 52.3311 135.743L50.3689 135.357C49.8822 137.825 49.65 141.657 49.65 146.8H51.65ZM52.329 135.754C52.8016 133.485 53.6431 132.131 54.7 131.435L53.6 129.765C51.9235 130.869 50.8984 132.815 50.371 135.346L52.329 135.754ZM54.7047 131.432C55.8559 130.665 57.8126 130.2 60.75 130.2V128.2C57.6874 128.2 55.2441 128.669 53.5953 129.768L54.7047 131.432ZM60.75 130.2C61.636 130.2 62.5763 130.263 63.572 130.392L63.828 128.408C62.757 128.27 61.7307 128.2 60.75 128.2V130.2ZM63.572 130.392C64.5751 130.521 65.3669 130.679 65.9627 130.858L66.5373 128.942C65.7998 128.721 64.8915 128.545 63.828 128.408L63.572 130.392ZM65.25 129.9V132.95H67.25V129.9H65.25ZM66.4087 131.963C64.5124 131.658 62.8888 131.5 61.55 131.5V133.5C62.7445 133.5 64.2542 133.642 66.0913 133.937L66.4087 131.963ZM61.55 131.5C59.2247 131.5 57.3524 131.792 56.1592 132.559L57.2408 134.241C57.9143 133.808 59.2753 133.5 61.55 133.5V131.5ZM56.1592 132.559C54.8634 133.392 54.1775 134.982 53.8627 136.941L55.8373 137.259C56.1225 135.485 56.67 134.608 57.2408 134.241L56.1592 132.559ZM53.8601 136.959C53.5822 138.903 53.45 142.201 53.45 146.8H55.45C55.45 142.199 55.5844 139.03 55.84 137.241L53.8601 136.959ZM53.45 146.8C53.45 151.399 53.5822 154.697 53.8601 156.641L55.84 156.359C55.5844 154.57 55.45 151.401 55.45 146.8H53.45ZM53.8627 156.659C54.1775 158.618 54.8634 160.208 56.1592 161.041L57.2408 159.359C56.67 158.992 56.1225 158.115 55.8373 156.341L53.8627 156.659ZM56.1592 161.041C57.3524 161.808 59.2247 162.1 61.55 162.1V160.1C59.2753 160.1 57.9143 159.792 57.2408 159.359L56.1592 161.041ZM61.55 162.1C63.277 162.1 64.9567 161.945 66.5881 161.632L66.2119 159.668C64.71 159.955 63.1564 160.1 61.55 160.1V162.1ZM65.4 160.65V163.8H67.4V160.65H65.4ZM73.1695 163.35L72.655 164.208L72.6657 164.214L73.1695 163.35ZM70.8695 159.7L69.8875 159.889L69.8893 159.898L69.8912 159.907L70.8695 159.7ZM70.8695 142.8L69.8912 142.593L69.8893 142.602L69.8875 142.611L70.8695 142.8ZM73.1695 139.15L72.6656 138.286L72.655 138.293L73.1695 139.15ZM84.8195 139.15L84.305 140.008L84.3157 140.014L84.8195 139.15ZM87.1195 142.8L88.1015 142.611L87.1195 142.8ZM87.1195 159.7L88.1015 159.889L87.1195 159.7ZM84.8195 163.35L84.3156 162.486L84.305 162.493L84.8195 163.35ZM82.5195 160.65L81.9648 159.818L81.9554 159.824L81.9461 159.831L82.5195 160.65ZM83.8195 144.45L84.811 144.32L83.8195 144.45ZM82.5195 141.85L81.9461 142.669L81.9554 142.676L81.9648 142.682L82.5195 141.85ZM75.4695 141.85L74.8961 141.031L75.4695 141.85ZM74.1695 144.5L73.1812 144.348L73.1795 144.359L73.1781 144.37L74.1695 144.5ZM74.1695 158.05L73.1777 158.177L73.1795 158.192L73.1818 158.206L74.1695 158.05ZM75.4695 160.65L74.8961 161.469L75.4695 160.65ZM79.0195 163.4C76.3583 163.4 74.6339 163.047 73.6734 162.486L72.6657 164.214C74.1051 165.053 76.2808 165.4 79.0195 165.4V163.4ZM73.684 162.493C72.8222 161.975 72.1754 161.041 71.8479 159.493L69.8912 159.907C70.297 161.826 71.1835 163.325 72.655 164.207L73.684 162.493ZM71.8515 159.511C71.5375 157.878 71.3695 155.144 71.3695 151.25H69.3695C69.3695 155.156 69.5349 158.055 69.8875 159.889L71.8515 159.511ZM71.3695 151.25C71.3695 147.356 71.5375 144.622 71.8515 142.989L69.8875 142.611C69.5349 144.445 69.3695 147.344 69.3695 151.25H71.3695ZM71.8479 143.007C72.1754 141.459 72.8222 140.525 73.684 140.007L72.655 138.293C71.1835 139.175 70.297 140.674 69.8912 142.593L71.8479 143.007ZM73.6734 140.014C74.6339 139.453 76.3583 139.1 79.0195 139.1V137.1C76.2808 137.1 74.1051 137.447 72.6657 138.286L73.6734 140.014ZM79.0195 139.1C81.6849 139.1 83.384 139.455 84.305 140.007L85.334 138.293C83.9218 137.445 81.7542 137.1 79.0195 137.1V139.1ZM84.3157 140.014C85.2021 140.531 85.8429 141.457 86.1375 142.989L88.1015 142.611C87.7295 140.677 86.837 139.169 85.3234 138.286L84.3157 140.014ZM86.1375 142.989C86.4515 144.622 86.6195 147.356 86.6195 151.25H88.6195C88.6195 147.344 88.4542 144.445 88.1015 142.611L86.1375 142.989ZM86.6195 151.25C86.6195 155.144 86.4515 157.878 86.1375 159.511L88.1015 159.889C88.4542 158.055 88.6195 155.156 88.6195 151.25H86.6195ZM86.1375 159.511C85.8429 161.043 85.2021 161.969 84.3157 162.486L85.3234 164.214C86.837 163.331 87.7295 161.823 88.1015 159.889L86.1375 159.511ZM84.305 162.493C83.384 163.045 81.6849 163.4 79.0195 163.4V165.4C81.7542 165.4 83.9218 165.055 85.334 164.207L84.305 162.493ZM79.0195 162.35C80.7149 162.35 82.156 162.125 83.093 161.469L81.9461 159.831C81.5497 160.108 80.6575 160.35 79.0195 160.35V162.35ZM83.0742 161.482C84.1159 160.788 84.6263 159.584 84.811 158.18L82.8281 157.92C82.6794 159.049 82.3232 159.579 81.9648 159.818L83.0742 161.482ZM84.811 158.18C84.9872 156.841 85.0695 154.514 85.0695 151.25H83.0695C83.0695 154.52 82.9851 156.726 82.8281 157.92L84.811 158.18ZM85.0695 151.25C85.0695 147.986 84.9872 145.659 84.811 144.32L82.8281 144.58C82.9851 145.774 83.0695 147.98 83.0695 151.25H85.0695ZM84.811 144.32C84.6263 142.916 84.1159 141.712 83.0742 141.018L81.9648 142.682C82.3232 142.921 82.6794 143.451 82.8281 144.58L84.811 144.32ZM83.093 141.031C82.156 140.375 80.7149 140.15 79.0195 140.15V142.15C80.6575 142.15 81.5497 142.392 81.9461 142.669L83.093 141.031ZM79.0195 140.15C77.2959 140.15 75.8351 140.373 74.8961 141.031L76.043 142.669C76.4373 142.393 77.3432 142.15 79.0195 142.15V140.15ZM74.8961 141.031C73.9009 141.727 73.398 142.939 73.1812 144.348L75.1579 144.652C75.3411 143.461 75.7048 142.906 76.043 142.669L74.8961 141.031ZM73.1781 144.37C73.0018 145.709 72.9195 148.019 72.9195 151.25H74.9195C74.9195 148.014 75.0039 145.824 75.161 144.63L73.1781 144.37ZM72.9195 151.25C72.9195 154.482 73.002 156.807 73.1777 158.177L75.1614 157.923C75.0038 156.693 74.9195 154.485 74.9195 151.25H72.9195ZM73.1818 158.206C73.4004 159.59 73.9073 160.777 74.8961 161.469L76.043 159.831C75.6984 159.59 75.3387 159.043 75.1573 157.894L73.1818 158.206ZM74.8961 161.469C75.8351 162.127 77.2959 162.35 79.0195 162.35V160.35C77.3432 160.35 76.4373 160.107 76.043 159.831L74.8961 161.469ZM95.0922 163.3L94.5008 164.106L94.5071 164.111L94.5134 164.116L95.0922 163.3ZM92.9422 159.45L91.9652 159.663L91.967 159.672L91.969 159.68L92.9422 159.45ZM92.9422 143.15L93.92 143.36L92.9422 143.15ZM95.0422 139.25L95.6336 140.056L95.638 140.053L95.0422 139.25ZM103.392 138.9L103.875 138.024L103.392 138.9ZM105.542 141.6L104.604 141.946L104.845 142.6H105.542V141.6ZM105.792 141.6V142.6H106.792V141.6H105.792ZM105.792 126.85V125.85H104.792V126.85H105.792ZM109.342 126.85H110.342V125.85H109.342V126.85ZM109.342 164V165H110.342V164H109.342ZM106.192 164L105.194 164.057L105.248 165H106.192V164ZM105.992 160.5L106.991 160.443L106.937 159.5H105.992V160.5ZM105.742 160.5V159.5H105.001L104.786 160.209L105.742 160.5ZM103.442 163.6L102.995 162.705L102.984 162.711L103.442 163.6ZM103.792 160.5L104.347 161.332L103.792 160.5ZM105.242 158.2L104.277 157.94L104.274 157.949L104.272 157.957L105.242 158.2ZM105.692 155.3L106.69 155.362L106.69 155.36L105.692 155.3ZM105.342 144.85L104.363 145.051L104.368 145.075L104.374 145.099L105.342 144.85ZM103.842 142.1L103.236 142.895L103.245 142.902L103.254 142.909L103.842 142.1ZM97.5422 141.95L98.0872 142.788L97.5422 141.95ZM96.1922 144.6L95.2072 144.428L95.2051 144.44L95.2033 144.452L96.1922 144.6ZM96.2422 157.9L95.2572 158.072L96.2422 157.9ZM97.5422 160.55L96.9775 161.375L96.9873 161.382L96.9972 161.388L97.5422 160.55ZM99.5922 163.4C97.7262 163.4 96.4651 163.048 95.6709 162.484L94.5134 164.116C95.7859 165.019 97.5248 165.4 99.5922 165.4V163.4ZM95.6836 162.494C94.9531 161.958 94.3213 160.937 93.9154 159.22L91.969 159.68C92.4297 161.629 93.2313 163.175 94.5008 164.106L95.6836 162.494ZM93.9192 159.237C93.5427 157.511 93.3422 154.881 93.3422 151.3H91.3422C91.3422 154.919 91.5417 157.722 91.9652 159.663L93.9192 159.237ZM93.3422 151.3C93.3422 147.754 93.5424 145.122 93.92 143.36L91.9644 142.94C91.542 144.912 91.3422 147.712 91.3422 151.3H93.3422ZM93.92 143.36C94.2953 141.608 94.914 140.584 95.6336 140.056L94.4508 138.444C93.1704 139.383 92.3891 140.958 91.9644 142.94L93.92 143.36ZM95.638 140.053C96.4294 139.466 97.6833 139.1 99.5422 139.1V137.1C97.4678 137.1 95.7216 137.501 94.4463 138.447L95.638 140.053ZM99.5422 139.1C101.044 139.1 102.142 139.352 102.909 139.776L103.875 138.024C102.709 137.381 101.24 137.1 99.5422 137.1V139.1ZM102.909 139.776C103.621 140.168 104.201 140.852 104.604 141.946L106.481 141.254C105.95 139.814 105.097 138.698 103.875 138.024L102.909 139.776ZM105.542 142.6H105.792V140.6H105.542V142.6ZM106.792 141.6V126.85H104.792V141.6H106.792ZM105.792 127.85H109.342V125.85H105.792V127.85ZM108.342 126.85V164H110.342V126.85H108.342ZM109.342 163H106.192V165H109.342V163ZM107.191 163.943L106.991 160.443L104.994 160.557L105.194 164.057L107.191 163.943ZM105.992 159.5H105.742V161.5H105.992V159.5ZM104.786 160.209C104.37 161.573 103.741 162.333 102.995 162.706L103.889 164.494C105.277 163.801 106.181 162.493 106.699 160.791L104.786 160.209ZM102.984 162.711C102.13 163.152 101.015 163.4 99.5922 163.4V165.4C101.236 165.4 102.688 165.115 103.901 164.489L102.984 162.711ZM100.892 162.2C102.236 162.2 103.423 161.948 104.347 161.332L103.237 159.668C102.762 159.985 102.015 160.2 100.892 160.2V162.2ZM104.347 161.332C105.311 160.689 105.904 159.675 106.212 158.443L104.272 157.957C104.047 158.859 103.673 159.377 103.237 159.668L104.347 161.332ZM106.208 158.46C106.461 157.518 106.62 156.484 106.69 155.362L104.694 155.238C104.631 156.25 104.49 157.149 104.277 157.94L106.208 158.46ZM106.69 155.36C106.759 154.231 106.792 152.725 106.792 150.85H104.792C104.792 152.708 104.759 154.169 104.694 155.24L106.69 155.36ZM106.792 150.85C106.792 148.015 106.645 145.902 106.311 144.601L104.374 145.099C104.639 146.131 104.792 148.018 104.792 150.85H106.792ZM106.322 144.649C106.028 143.216 105.442 142.027 104.43 141.291L103.254 142.909C103.709 143.24 104.123 143.884 104.363 145.051L106.322 144.649ZM104.448 141.305C103.505 140.586 102.238 140.3 100.792 140.3V142.3C102.014 142.3 102.78 142.548 103.236 142.895L104.448 141.305ZM100.792 140.3C99.2441 140.3 97.9156 140.515 96.9972 141.112L98.0872 142.788C98.5021 142.519 99.3402 142.3 100.792 142.3V140.3ZM96.9972 141.112C95.9784 141.774 95.4565 143.003 95.2072 144.428L97.1772 144.772C97.3945 143.531 97.7726 142.993 98.0872 142.788L96.9972 141.112ZM95.2033 144.452C94.9912 145.865 94.8922 148.147 94.8922 151.25H96.8922C96.8922 148.153 96.9932 146.001 97.1811 144.748L95.2033 144.452ZM94.8922 151.25C94.8922 154.353 95.0075 156.646 95.2572 158.072L97.2272 157.728C97.0102 156.487 96.8922 154.347 96.8922 151.25H94.8922ZM95.2572 158.072C95.5041 159.484 96.0027 160.708 96.9775 161.375L98.1069 159.725C97.815 159.525 97.4469 158.983 97.2272 157.728L95.2572 158.072ZM96.9972 161.388C97.9202 161.988 99.2879 162.2 100.892 162.2V160.2C99.3631 160.2 98.4976 159.978 98.0872 159.712L96.9972 161.388ZM131.502 152.4V153.4H132.502V152.4H131.502ZM118.402 152.4V151.4H117.402V152.4H118.402ZM118.752 158.25L117.77 158.441L117.773 158.457L117.777 158.473L118.752 158.25ZM120.352 160.7L119.848 161.564L119.869 161.576L119.891 161.587L120.352 160.7ZM130.802 160.8H131.802V159.6L130.622 159.816L130.802 160.8ZM130.802 163.7L131.054 164.668L131.802 164.473V163.7H130.802ZM127.652 164.2L127.552 163.205L127.652 164.2ZM117.902 163.25L117.358 164.089L117.366 164.094L117.374 164.099L117.902 163.25ZM115.452 159.4L116.427 159.179L115.452 159.4ZM115.352 143.25L116.334 143.439L116.335 143.435L115.352 143.25ZM117.652 139.35L117.092 138.521L117.082 138.529L117.652 139.35ZM129.002 139.3L128.414 140.109L129.002 139.3ZM131.052 143.05L130.064 143.205L130.066 143.214L130.067 143.224L131.052 143.05ZM120.102 141.7L120.598 142.568L120.102 141.7ZM118.702 144.05L117.721 143.854L117.719 143.865L117.717 143.876L118.702 144.05ZM118.402 149.75H117.402V150.75H118.402V149.75ZM128.102 149.75V150.75H129.102V149.75H128.102ZM127.702 143.85L126.729 144.079L126.73 144.086L127.702 143.85ZM126.352 141.65L125.831 142.503L125.858 142.52L125.886 142.535L126.352 141.65ZM131.502 151.4H118.402V153.4H131.502V151.4ZM117.402 152.4C117.402 155.106 117.517 157.139 117.77 158.441L119.734 158.059C119.52 156.961 119.402 155.094 119.402 152.4H117.402ZM117.777 158.473C118.086 159.826 118.744 160.92 119.848 161.564L120.856 159.836C120.36 159.547 119.951 159.007 119.727 158.027L117.777 158.473ZM119.891 161.587C120.951 162.139 122.544 162.35 124.502 162.35V160.35C122.594 160.35 121.419 160.128 120.813 159.813L119.891 161.587ZM124.502 162.35C126.758 162.35 128.918 162.162 130.982 161.784L130.622 159.816C128.686 160.171 126.646 160.35 124.502 160.35V162.35ZM129.802 160.8V163.7H131.802V160.8H129.802ZM130.55 162.732C129.856 162.913 128.864 163.074 127.552 163.205L127.751 165.195C129.106 165.06 130.215 164.887 131.054 164.668L130.55 162.732ZM127.552 163.205C126.249 163.335 124.999 163.4 123.802 163.4V165.4C125.071 165.4 126.388 165.331 127.751 165.195L127.552 163.205ZM123.802 163.4C121.152 163.4 119.419 163.016 118.43 162.401L117.374 164.099C118.851 165.018 121.052 165.4 123.802 165.4V163.4ZM118.446 162.411C117.48 161.784 116.784 160.754 116.427 159.179L114.477 159.621C114.92 161.579 115.857 163.116 117.358 164.089L118.446 162.411ZM116.427 159.179C116.053 157.526 115.852 154.918 115.852 151.3H113.852C113.852 154.949 114.051 157.741 114.477 159.621L116.427 159.179ZM115.852 151.3C115.852 147.678 116.019 145.074 116.334 143.439L114.37 143.061C114.018 144.893 113.852 147.655 113.852 151.3H115.852ZM116.335 143.435C116.631 141.864 117.285 140.822 118.222 140.171L117.082 138.529C115.619 139.545 114.739 141.103 114.369 143.065L116.335 143.435ZM118.212 140.179C119.193 139.516 120.911 139.1 123.552 139.1V137.1C120.793 137.1 118.578 137.517 117.092 138.521L118.212 140.179ZM123.552 139.1C126.031 139.1 127.579 139.501 128.414 140.109L129.59 138.491C128.225 137.499 126.139 137.1 123.552 137.1V139.1ZM128.414 140.109C129.246 140.714 129.827 141.694 130.064 143.205L132.04 142.895C131.744 141.006 130.958 139.486 129.59 138.491L128.414 140.109ZM130.067 143.224C130.351 144.832 130.502 147.49 130.502 151.25H132.502C132.502 147.477 132.353 144.668 132.037 142.876L130.067 143.224ZM130.502 151.25V152.4H132.502V151.25H130.502ZM123.502 140.1C121.897 140.1 120.542 140.297 119.606 140.832L120.598 142.568C121.062 142.303 121.974 142.1 123.502 142.1V140.1ZM119.606 140.832C118.555 141.432 117.984 142.541 117.721 143.854L119.683 144.246C119.887 143.226 120.249 142.768 120.598 142.568L119.606 140.832ZM117.717 143.876C117.501 145.104 117.402 147.081 117.402 149.75H119.402C119.402 147.086 119.503 145.263 119.687 144.224L117.717 143.876ZM118.402 150.75H128.102V148.75H118.402V150.75ZM129.102 149.75V149.15H127.102V149.75H129.102ZM129.102 149.15C129.102 146.706 128.97 144.838 128.674 143.614L126.73 144.086C126.967 145.062 127.102 146.727 127.102 149.15H129.102ZM128.675 143.621C128.383 142.378 127.831 141.298 126.818 140.765L125.886 142.535C126.14 142.668 126.488 143.055 126.729 144.079L128.675 143.621ZM126.873 140.797C126.032 140.283 124.853 140.1 123.502 140.1V142.1C124.751 142.1 125.472 142.284 125.831 142.503L126.873 140.797Z" fill="white"/>
<g clip-path="url(#clip0)">
<g filter="url(#filter0_d)">
<path d="M168.275 128L173.175 129L163.825 173L158.925 172L168.275 128ZM185.025 150.5L176.05 141.525V134.45L192.1 150.5L176.05 166.525V159.45L185.025 150.5ZM140 150.5L156.05 134.45V141.525L147.075 150.5L156.05 159.45V166.525L140 150.5Z" fill="#2568ED"/>
<path d="M168.375 127.51L167.889 127.411L167.786 127.896L158.436 171.896L158.331 172.389L158.825 172.49L163.725 173.49L164.211 173.589L164.314 173.104L173.664 129.104L173.769 128.611L173.275 128.51L168.375 127.51ZM175.696 141.879L184.317 150.5L175.697 159.096L175.55 159.242V159.45V166.525V167.731L176.403 166.879L192.453 150.854L192.807 150.5L192.454 150.146L176.404 134.096L175.55 133.243V134.45V141.525V141.732L175.696 141.879ZM139.646 150.146L139.293 150.5L139.647 150.854L155.697 166.879L156.55 167.731V166.525V159.45V159.242L156.403 159.096L147.783 150.5L156.404 141.879L156.55 141.732V141.525V134.45V133.243L155.696 134.096L139.646 150.146Z" stroke="white"/>
</g>
</g>
<defs>
<filter id="filter0_d" x="134.585" y="126.822" width="62.9295" height="55.3563" filterUnits="userSpaceOnUse" color-interpolation-filters="sRGB">
<feFlood flood-opacity="0" result="BackgroundImageFix"/>
<feColorMatrix in="SourceAlpha" type="matrix" values="0 0 0 0 0 0 0 0 0 0 0 0 0 0 0 0 0 0 127 0"/>
<feOffset dy="4"/>
<feGaussianBlur stdDeviation="2"/>
<feColorMatrix type="matrix" values="0 0 0 0 0 0 0 0 0 0 0 0 0 0 0 0 0 0 0.25 0"/>
<feBlend mode="normal" in2="BackgroundImageFix" result="effect1_dropShadow"/>
<feBlend mode="normal" in="SourceGraphic" in2="effect1_dropShadow" result="shape"/>
</filter>
<clipPath id="clip0">
<rect width="60" height="60" fill="white" transform="translate(136 120)"/>
</clipPath>
</defs>
</svg>
